<svg xmlns="http://www.w3.org/2000/svg" xmlns:xlink="http://www.w3.org/1999/xlink" width="1080" zoomAndPan="magnify" viewBox="0 0 810 1439.999935" height="1920" preserveAspectRatio="xMidYMid meet" version="1.0"><defs><clipPath id="fe436d744f"><path d="M 53.007812 287.644531 L 757 287.644531 L 757 1100.644531 L 53.007812 1100.644531 Z M 53.007812 287.644531 " clip-rule="nonzero"/></clipPath></defs><rect x="-81" width="972" fill="#ffffff" y="-143.999994" height="1727.999922" fill-opacity="1"/><rect x="-81" width="972" fill="#ffffff" y="-143.999994" height="1727.999922" fill-opacity="1"/><g clip-path="url(#fe436d744f)"><path fill="#a9a7a7" d="M 53.007812 1018.898438 C 53.007812 1020.230469 53.039062 1021.558594 53.105469 1022.886719 C 53.167969 1024.214844 53.265625 1025.539062 53.398438 1026.863281 C 53.527344 1028.183594 53.691406 1029.503906 53.886719 1030.820312 C 54.082031 1032.132812 54.308594 1033.441406 54.566406 1034.746094 C 54.828125 1036.050781 55.117188 1037.347656 55.441406 1038.636719 C 55.765625 1039.925781 56.117188 1041.207031 56.503906 1042.480469 C 56.890625 1043.75 57.308594 1045.011719 57.753906 1046.265625 C 58.203125 1047.515625 58.679688 1048.757812 59.191406 1049.984375 C 59.699219 1051.214844 60.238281 1052.429688 60.804688 1053.628906 C 61.375 1054.832031 61.972656 1056.019531 62.597656 1057.191406 C 63.222656 1058.363281 63.878906 1059.519531 64.5625 1060.660156 C 65.246094 1061.800781 65.957031 1062.921875 66.695312 1064.027344 C 67.433594 1065.132812 68.199219 1066.21875 68.992188 1067.289062 C 69.785156 1068.355469 70.601562 1069.402344 71.445312 1070.429688 C 72.289062 1071.457031 73.15625 1072.464844 74.046875 1073.449219 C 74.941406 1074.433594 75.859375 1075.398438 76.796875 1076.335938 C 77.738281 1077.277344 78.699219 1078.195312 79.683594 1079.085938 C 80.671875 1079.980469 81.675781 1080.847656 82.703125 1081.691406 C 83.730469 1082.535156 84.78125 1083.351562 85.847656 1084.144531 C 86.914062 1084.933594 88 1085.699219 89.105469 1086.4375 C 90.210938 1087.175781 91.335938 1087.886719 92.476562 1088.570312 C 93.617188 1089.253906 94.773438 1089.910156 95.945312 1090.539062 C 97.117188 1091.164062 98.304688 1091.761719 99.503906 1092.328125 C 100.707031 1092.898438 101.921875 1093.4375 103.148438 1093.945312 C 104.378906 1094.453125 105.617188 1094.933594 106.871094 1095.378906 C 108.121094 1095.828125 109.382812 1096.246094 110.65625 1096.632812 C 111.925781 1097.015625 113.207031 1097.371094 114.496094 1097.695312 C 115.789062 1098.015625 117.085938 1098.308594 118.386719 1098.566406 C 119.691406 1098.828125 121 1099.054688 122.316406 1099.25 C 123.632812 1099.445312 124.949219 1099.605469 126.273438 1099.738281 C 127.597656 1099.867188 128.921875 1099.964844 130.25 1100.03125 C 131.578125 1100.097656 132.90625 1100.128906 134.234375 1100.128906 L 513.300781 1100.128906 C 514.628906 1100.128906 515.960938 1100.097656 517.285156 1100.03125 C 518.613281 1099.964844 519.941406 1099.867188 521.261719 1099.738281 C 522.585938 1099.605469 523.90625 1099.445312 525.21875 1099.25 C 526.535156 1099.054688 527.84375 1098.828125 529.148438 1098.566406 C 530.453125 1098.308594 531.75 1098.015625 533.039062 1097.695312 C 534.328125 1097.371094 535.609375 1097.015625 536.878906 1096.632812 C 538.152344 1096.246094 539.414062 1095.828125 540.667969 1095.378906 C 541.917969 1094.933594 543.15625 1094.453125 544.386719 1093.945312 C 545.613281 1093.4375 546.828125 1092.898438 548.03125 1092.328125 C 549.234375 1091.761719 550.417969 1091.164062 551.59375 1090.539062 C 552.765625 1089.910156 553.921875 1089.253906 555.0625 1088.570312 C 556.203125 1087.886719 557.324219 1087.175781 558.429688 1086.4375 C 559.535156 1085.699219 560.621094 1084.933594 561.6875 1084.144531 C 562.757812 1083.351562 563.804688 1082.535156 564.832031 1081.691406 C 565.859375 1080.847656 566.867188 1079.980469 567.851562 1079.085938 C 568.835938 1078.195312 569.796875 1077.277344 570.738281 1076.335938 C 571.679688 1075.398438 572.59375 1074.433594 573.488281 1073.449219 C 574.378906 1072.464844 575.25 1071.457031 576.09375 1070.429688 C 576.933594 1069.402344 577.753906 1068.355469 578.542969 1067.289062 C 579.335938 1066.21875 580.101562 1065.132812 580.839844 1064.027344 C 581.578125 1062.921875 582.289062 1061.800781 582.972656 1060.660156 C 583.65625 1059.519531 584.3125 1058.363281 584.9375 1057.191406 C 585.566406 1056.019531 586.164062 1054.832031 586.730469 1053.628906 C 587.300781 1052.429688 587.835938 1051.214844 588.347656 1049.984375 C 588.855469 1048.757812 589.332031 1047.515625 589.78125 1046.265625 C 590.230469 1045.011719 590.644531 1043.75 591.03125 1042.480469 C 591.417969 1041.207031 591.773438 1039.925781 592.09375 1038.636719 C 592.417969 1037.347656 592.710938 1036.050781 592.96875 1034.746094 C 593.226562 1033.441406 593.457031 1032.132812 593.652344 1030.820312 C 593.84375 1029.503906 594.007812 1028.183594 594.136719 1026.863281 C 594.269531 1025.539062 594.367188 1024.214844 594.433594 1022.886719 C 594.496094 1021.558594 594.53125 1020.230469 594.53125 1018.898438 L 594.53125 991.824219 L 675.757812 991.824219 C 677.085938 991.824219 678.417969 991.792969 679.742188 991.726562 C 681.070312 991.660156 682.398438 991.5625 683.71875 991.433594 C 685.042969 991.300781 686.363281 991.140625 687.675781 990.945312 C 688.992188 990.75 690.300781 990.523438 691.605469 990.261719 C 692.910156 990.003906 694.207031 989.710938 695.496094 989.390625 C 696.785156 989.066406 698.066406 988.710938 699.335938 988.324219 C 700.609375 987.941406 701.871094 987.523438 703.125 987.074219 C 704.375 986.628906 705.613281 986.148438 706.84375 985.640625 C 708.070312 985.132812 709.285156 984.59375 710.488281 984.023438 C 711.691406 983.457031 712.875 982.859375 714.050781 982.230469 C 715.222656 981.605469 716.378906 980.949219 717.519531 980.265625 C 718.660156 979.582031 719.78125 978.871094 720.886719 978.132812 C 721.992188 977.394531 723.078125 976.628906 724.144531 975.839844 C 725.214844 975.046875 726.261719 974.230469 727.289062 973.386719 C 728.316406 972.542969 729.324219 971.675781 730.308594 970.78125 C 731.292969 969.890625 732.253906 968.972656 733.195312 968.03125 C 734.136719 967.09375 735.050781 966.128906 735.945312 965.144531 C 736.835938 964.160156 737.707031 963.152344 738.550781 962.125 C 739.390625 961.097656 740.210938 960.050781 741 958.984375 C 741.792969 957.914062 742.558594 956.828125 743.296875 955.722656 C 744.035156 954.617188 744.746094 953.496094 745.429688 952.355469 C 746.113281 951.214844 746.769531 950.058594 747.394531 948.886719 C 748.023438 947.714844 748.621094 946.527344 749.1875 945.324219 C 749.757812 944.125 750.292969 942.90625 750.804688 941.679688 C 751.3125 940.453125 751.789062 939.210938 752.238281 937.960938 C 752.6875 936.707031 753.101562 935.445312 753.488281 934.175781 C 753.875 932.902344 754.230469 931.621094 754.550781 930.332031 C 754.875 929.042969 755.167969 927.746094 755.425781 926.441406 C 755.683594 925.136719 755.914062 923.828125 756.109375 922.515625 C 756.300781 921.199219 756.464844 919.878906 756.59375 918.558594 C 756.726562 917.234375 756.824219 915.910156 756.890625 914.582031 C 756.953125 913.253906 756.988281 911.925781 756.988281 910.59375 L 756.988281 369.070312 C 756.988281 367.742188 756.953125 366.414062 756.890625 365.085938 C 756.824219 363.757812 756.726562 362.433594 756.59375 361.109375 C 756.464844 359.789062 756.300781 358.46875 756.109375 357.152344 C 755.914062 355.839844 755.683594 354.527344 755.425781 353.226562 C 755.167969 351.921875 754.875 350.625 754.550781 349.335938 C 754.230469 348.046875 753.875 346.765625 753.488281 345.492188 C 753.101562 344.21875 752.6875 342.957031 752.238281 341.707031 C 751.789062 340.457031 751.3125 339.214844 750.804688 337.988281 C 750.292969 336.757812 749.757812 335.542969 749.1875 334.34375 C 748.621094 333.140625 748.023438 331.953125 747.394531 330.78125 C 746.769531 329.609375 746.113281 328.453125 745.429688 327.3125 C 744.746094 326.171875 744.035156 325.050781 743.296875 323.945312 C 742.558594 322.839844 741.792969 321.75 741 320.683594 C 740.210938 319.617188 739.390625 318.570312 738.546875 317.542969 C 737.707031 316.511719 736.835938 315.507812 735.945312 314.523438 C 735.050781 313.539062 734.136719 312.574219 733.195312 311.632812 C 732.253906 310.695312 731.292969 309.777344 730.308594 308.886719 C 729.324219 307.992188 728.316406 307.125 727.289062 306.28125 C 726.261719 305.4375 725.214844 304.621094 724.144531 303.828125 C 723.078125 303.035156 721.992188 302.269531 720.886719 301.53125 C 719.78125 300.792969 718.660156 300.082031 717.519531 299.398438 C 716.378906 298.714844 715.222656 298.0625 714.050781 297.433594 C 712.875 296.808594 711.691406 296.210938 710.488281 295.640625 C 709.285156 295.074219 708.070312 294.535156 706.84375 294.027344 C 705.613281 293.519531 704.375 293.039062 703.125 292.589844 C 701.871094 292.144531 700.609375 291.726562 699.335938 291.339844 C 698.066406 290.957031 696.785156 290.601562 695.496094 290.277344 C 694.207031 289.953125 692.910156 289.664062 691.605469 289.402344 C 690.300781 289.144531 688.992188 288.917969 687.675781 288.722656 C 686.363281 288.527344 685.042969 288.363281 683.71875 288.234375 C 682.398438 288.105469 681.070312 288.007812 679.742188 287.941406 C 678.417969 287.875 677.085938 287.84375 675.757812 287.84375 L 296.691406 287.84375 C 295.363281 287.84375 294.035156 287.875 292.707031 287.941406 C 291.378906 288.007812 290.054688 288.105469 288.730469 288.234375 C 287.40625 288.363281 286.089844 288.527344 284.773438 288.722656 C 283.457031 288.917969 282.148438 289.144531 280.84375 289.402344 C 279.542969 289.664062 278.246094 289.953125 276.953125 290.277344 C 275.664062 290.601562 274.382812 290.957031 273.113281 291.339844 C 271.839844 291.726562 270.578125 292.144531 269.328125 292.589844 C 268.074219 293.039062 266.835938 293.519531 265.605469 294.027344 C 264.378906 294.535156 263.164062 295.074219 261.960938 295.640625 C 260.761719 296.210938 259.574219 296.808594 258.402344 297.433594 C 257.230469 298.0625 256.074219 298.714844 254.933594 299.398438 C 253.792969 300.082031 252.667969 300.792969 251.5625 301.53125 C 250.457031 302.269531 249.371094 303.035156 248.304688 303.828125 C 247.238281 304.621094 246.1875 305.4375 245.160156 306.28125 C 244.132812 307.125 243.128906 307.992188 242.140625 308.886719 C 241.15625 309.777344 240.195312 310.695312 239.253906 311.632812 C 238.316406 312.574219 237.398438 313.539062 236.503906 314.523438 C 235.613281 315.507812 234.746094 316.511719 233.902344 317.542969 C 233.058594 318.570312 232.242188 319.617188 231.449219 320.683594 C 230.65625 321.75 229.890625 322.839844 229.152344 323.945312 C 228.414062 325.050781 227.703125 326.171875 227.019531 327.3125 C 226.335938 328.453125 225.679688 329.609375 225.054688 330.78125 C 224.429688 331.953125 223.832031 333.140625 223.261719 334.34375 C 222.695312 335.542969 222.15625 336.757812 221.648438 337.988281 C 221.136719 339.214844 220.660156 340.457031 220.210938 341.707031 C 219.765625 342.957031 219.347656 344.21875 218.960938 345.492188 C 218.574219 346.765625 218.222656 348.046875 217.898438 349.335938 C 217.574219 350.625 217.285156 351.921875 217.023438 353.226562 C 216.765625 354.527344 216.539062 355.839844 216.34375 357.152344 C 216.148438 358.46875 215.984375 359.789062 215.855469 361.109375 C 215.722656 362.433594 215.625 363.757812 215.5625 365.085938 C 215.496094 366.414062 215.464844 367.742188 215.464844 369.070312 L 215.464844 396.148438 L 134.234375 396.148438 C 132.90625 396.148438 131.578125 396.179688 130.25 396.246094 C 128.921875 396.3125 127.597656 396.410156 126.273438 396.539062 C 124.949219 396.667969 123.632812 396.832031 122.316406 397.027344 C 121 397.222656 119.691406 397.449219 118.386719 397.707031 C 117.085938 397.96875 115.789062 398.257812 114.496094 398.582031 C 113.207031 398.90625 111.925781 399.261719 110.65625 399.644531 C 109.382812 400.03125 108.121094 400.449219 106.871094 400.894531 C 105.617188 401.34375 104.378906 401.824219 103.148438 402.332031 C 101.921875 402.839844 100.707031 403.378906 99.503906 403.945312 C 98.304688 404.515625 97.117188 405.113281 95.945312 405.738281 C 94.773438 406.367188 93.617188 407.019531 92.476562 407.703125 C 91.335938 408.386719 90.210938 409.097656 89.105469 409.835938 C 88 410.574219 86.914062 411.339844 85.847656 412.132812 C 84.78125 412.925781 83.730469 413.742188 82.703125 414.585938 C 81.675781 415.429688 80.671875 416.296875 79.683594 417.191406 C 78.699219 418.082031 77.738281 419 76.796875 419.9375 C 75.859375 420.878906 74.941406 421.84375 74.046875 422.828125 C 73.15625 423.8125 72.289062 424.816406 71.445312 425.847656 C 70.601562 426.875 69.785156 427.921875 68.992188 428.988281 C 68.199219 430.054688 67.433594 431.144531 66.695312 432.25 C 65.957031 433.355469 65.246094 434.476562 64.5625 435.617188 C 63.878906 436.757812 63.222656 437.914062 62.597656 439.085938 C 61.972656 440.257812 61.375 441.445312 60.804688 442.648438 C 60.238281 443.847656 59.699219 445.0625 59.191406 446.292969 C 58.679688 447.519531 58.203125 448.761719 57.753906 450.011719 C 57.308594 451.261719 56.890625 452.523438 56.503906 453.796875 C 56.117188 455.070312 55.765625 456.351562 55.441406 457.640625 C 55.117188 458.929688 54.828125 460.226562 54.566406 461.53125 C 54.308594 462.832031 54.082031 464.144531 53.886719 465.457031 C 53.691406 466.773438 53.527344 468.09375 53.398438 469.414062 C 53.265625 470.738281 53.167969 472.0625 53.105469 473.390625 C 53.039062 474.71875 53.007812 476.046875 53.007812 477.375 Z M 269.617188 369.070312 C 269.617188 368.183594 269.660156 367.300781 269.746094 366.417969 C 269.832031 365.535156 269.964844 364.660156 270.136719 363.789062 C 270.308594 362.921875 270.523438 362.0625 270.78125 361.210938 C 271.039062 360.363281 271.335938 359.53125 271.675781 358.710938 C 272.015625 357.890625 272.394531 357.089844 272.8125 356.308594 C 273.230469 355.527344 273.6875 354.765625 274.179688 354.027344 C 274.671875 353.292969 275.199219 352.582031 275.761719 351.894531 C 276.324219 351.210938 276.917969 350.554688 277.546875 349.925781 C 278.171875 349.300781 278.828125 348.703125 279.515625 348.140625 C 280.199219 347.578125 280.910156 347.050781 281.648438 346.558594 C 282.386719 346.066406 283.144531 345.609375 283.929688 345.191406 C 284.710938 344.773438 285.511719 344.394531 286.332031 344.058594 C 287.148438 343.71875 287.984375 343.417969 288.832031 343.160156 C 289.679688 342.902344 290.539062 342.6875 291.410156 342.515625 C 292.28125 342.34375 293.15625 342.214844 294.039062 342.125 C 294.921875 342.039062 295.804688 341.996094 296.691406 341.996094 L 675.757812 341.996094 C 676.644531 341.996094 677.53125 342.039062 678.414062 342.125 C 679.292969 342.214844 680.171875 342.34375 681.039062 342.515625 C 681.910156 342.6875 682.769531 342.902344 683.617188 343.160156 C 684.464844 343.417969 685.300781 343.71875 686.121094 344.058594 C 686.9375 344.394531 687.738281 344.773438 688.523438 345.191406 C 689.304688 345.609375 690.0625 346.066406 690.800781 346.558594 C 691.539062 347.050781 692.25 347.578125 692.933594 348.140625 C 693.621094 348.703125 694.277344 349.300781 694.902344 349.925781 C 695.53125 350.554688 696.125 351.210938 696.6875 351.894531 C 697.25 352.582031 697.777344 353.292969 698.269531 354.027344 C 698.765625 354.765625 699.21875 355.527344 699.636719 356.308594 C 700.054688 357.089844 700.433594 357.890625 700.773438 358.710938 C 701.113281 359.53125 701.410156 360.363281 701.667969 361.210938 C 701.925781 362.0625 702.140625 362.917969 702.3125 363.789062 C 702.488281 364.660156 702.617188 365.535156 702.703125 366.417969 C 702.792969 367.300781 702.835938 368.183594 702.835938 369.070312 L 702.835938 910.59375 C 702.835938 911.480469 702.792969 912.367188 702.703125 913.25 C 702.617188 914.132812 702.488281 915.007812 702.3125 915.878906 C 702.140625 916.746094 701.925781 917.605469 701.667969 918.457031 C 701.410156 919.304688 701.113281 920.136719 700.773438 920.957031 C 700.433594 921.777344 700.054688 922.578125 699.636719 923.359375 C 699.21875 924.140625 698.765625 924.902344 698.269531 925.636719 C 697.777344 926.375 697.25 927.085938 696.6875 927.773438 C 696.125 928.457031 695.53125 929.113281 694.902344 929.742188 C 694.277344 930.367188 693.621094 930.964844 692.933594 931.527344 C 692.25 932.089844 691.539062 932.617188 690.800781 933.109375 C 690.0625 933.601562 689.304688 934.054688 688.523438 934.472656 C 687.738281 934.890625 686.9375 935.269531 686.121094 935.609375 C 685.300781 935.949219 684.464844 936.25 683.617188 936.503906 C 682.769531 936.761719 681.910156 936.976562 681.039062 937.152344 C 680.171875 937.324219 679.292969 937.453125 678.414062 937.542969 C 677.53125 937.628906 676.644531 937.671875 675.757812 937.671875 L 594.53125 937.671875 L 594.53125 477.375 C 594.53125 476.046875 594.496094 474.71875 594.433594 473.390625 C 594.367188 472.0625 594.269531 470.738281 594.136719 469.414062 C 594.007812 468.09375 593.84375 466.773438 593.652344 465.457031 C 593.457031 464.144531 593.226562 462.832031 592.96875 461.53125 C 592.710938 460.226562 592.417969 458.929688 592.09375 457.640625 C 591.773438 456.351562 591.417969 455.070312 591.03125 453.796875 C 590.644531 452.523438 590.230469 451.261719 589.78125 450.011719 C 589.332031 448.761719 588.855469 447.519531 588.347656 446.292969 C 587.835938 445.0625 587.300781 443.847656 586.730469 442.648438 C 586.164062 441.445312 585.566406 440.257812 584.9375 439.085938 C 584.3125 437.914062 583.65625 436.757812 582.972656 435.617188 C 582.289062 434.476562 581.578125 433.355469 580.839844 432.25 C 580.101562 431.144531 579.335938 430.054688 578.542969 428.988281 C 577.753906 427.921875 576.933594 426.875 576.09375 425.847656 C 575.25 424.816406 574.378906 423.8125 573.488281 422.828125 C 572.59375 421.84375 571.679688 420.878906 570.738281 419.9375 C 569.796875 419 568.835938 418.082031 567.851562 417.191406 C 566.867188 416.296875 565.859375 415.429688 564.832031 414.585938 C 563.804688 413.742188 562.757812 412.925781 561.6875 412.132812 C 560.621094 411.339844 559.535156 410.574219 558.429688 409.835938 C 557.324219 409.097656 556.203125 408.386719 555.0625 407.703125 C 553.921875 407.019531 552.765625 406.367188 551.59375 405.738281 C 550.417969 405.113281 549.234375 404.515625 548.03125 403.945312 C 546.828125 403.378906 545.613281 402.839844 544.386719 402.332031 C 543.15625 401.824219 541.917969 401.34375 540.667969 400.894531 C 539.414062 400.449219 538.152344 400.03125 536.878906 399.644531 C 535.609375 399.261719 534.328125 398.90625 533.039062 398.582031 C 531.75 398.257812 530.453125 397.96875 529.148438 397.707031 C 527.84375 397.449219 526.535156 397.222656 525.21875 397.027344 C 523.90625 396.832031 522.585938 396.667969 521.261719 396.539062 C 519.941406 396.410156 518.613281 396.3125 517.285156 396.246094 C 515.960938 396.179688 514.628906 396.148438 513.300781 396.148438 L 269.617188 396.148438 Z M 107.160156 477.375 C 107.160156 476.488281 107.203125 475.605469 107.289062 474.722656 C 107.375 473.839844 107.507812 472.964844 107.679688 472.09375 C 107.851562 471.222656 108.066406 470.367188 108.324219 469.515625 C 108.582031 468.667969 108.878906 467.835938 109.21875 467.015625 C 109.558594 466.195312 109.9375 465.394531 110.355469 464.613281 C 110.773438 463.832031 111.230469 463.070312 111.722656 462.332031 C 112.214844 461.597656 112.742188 460.886719 113.304688 460.199219 C 113.867188 459.515625 114.460938 458.859375 115.089844 458.230469 C 115.714844 457.605469 116.371094 457.007812 117.058594 456.445312 C 117.742188 455.882812 118.453125 455.355469 119.191406 454.863281 C 119.929688 454.371094 120.6875 453.914062 121.472656 453.496094 C 122.253906 453.078125 123.054688 452.699219 123.875 452.363281 C 124.691406 452.023438 125.527344 451.722656 126.375 451.464844 C 127.222656 451.207031 128.082031 450.992188 128.953125 450.820312 C 129.824219 450.648438 130.699219 450.519531 131.582031 450.429688 C 132.464844 450.34375 133.347656 450.300781 134.234375 450.300781 L 513.300781 450.300781 C 514.1875 450.300781 515.074219 450.34375 515.957031 450.429688 C 516.835938 450.519531 517.714844 450.648438 518.582031 450.820312 C 519.453125 450.992188 520.3125 451.207031 521.160156 451.464844 C 522.007812 451.722656 522.84375 452.023438 523.664062 452.363281 C 524.480469 452.699219 525.28125 453.078125 526.066406 453.496094 C 526.847656 453.914062 527.605469 454.371094 528.34375 454.863281 C 529.082031 455.355469 529.792969 455.882812 530.476562 456.445312 C 531.164062 457.007812 531.820312 457.605469 532.445312 458.230469 C 533.074219 458.859375 533.667969 459.515625 534.230469 460.199219 C 534.792969 460.886719 535.320312 461.597656 535.8125 462.332031 C 536.308594 463.070312 536.761719 463.832031 537.179688 464.613281 C 537.597656 465.394531 537.976562 466.195312 538.316406 467.015625 C 538.65625 467.835938 538.953125 468.667969 539.210938 469.515625 C 539.46875 470.367188 539.683594 471.222656 539.855469 472.09375 C 540.03125 472.964844 540.160156 473.839844 540.246094 474.722656 C 540.335938 475.605469 540.378906 476.488281 540.378906 477.375 L 540.378906 1018.898438 C 540.378906 1019.785156 540.335938 1020.671875 540.246094 1021.554688 C 540.160156 1022.4375 540.03125 1023.3125 539.855469 1024.183594 C 539.683594 1025.050781 539.46875 1025.910156 539.210938 1026.761719 C 538.953125 1027.609375 538.65625 1028.441406 538.316406 1029.261719 C 537.976562 1030.082031 537.597656 1030.882812 537.179688 1031.664062 C 536.761719 1032.445312 536.308594 1033.207031 535.8125 1033.941406 C 535.320312 1034.679688 534.792969 1035.390625 534.230469 1036.078125 C 533.667969 1036.761719 533.074219 1037.417969 532.445312 1038.046875 C 531.820312 1038.671875 531.164062 1039.269531 530.476562 1039.832031 C 529.792969 1040.394531 529.082031 1040.921875 528.34375 1041.414062 C 527.605469 1041.90625 526.847656 1042.359375 526.066406 1042.777344 C 525.28125 1043.195312 524.480469 1043.574219 523.664062 1043.914062 C 522.84375 1044.253906 522.007812 1044.554688 521.160156 1044.808594 C 520.3125 1045.066406 519.453125 1045.28125 518.582031 1045.457031 C 517.714844 1045.628906 516.835938 1045.757812 515.957031 1045.847656 C 515.074219 1045.933594 514.1875 1045.976562 513.300781 1045.976562 L 134.234375 1045.976562 C 133.347656 1045.976562 132.464844 1045.933594 131.582031 1045.847656 C 130.699219 1045.757812 129.824219 1045.628906 128.953125 1045.457031 C 128.082031 1045.28125 127.222656 1045.066406 126.375 1044.808594 C 125.527344 1044.554688 124.691406 1044.253906 123.875 1043.914062 C 123.054688 1043.574219 122.253906 1043.195312 121.472656 1042.777344 C 120.6875 1042.359375 119.929688 1041.90625 119.191406 1041.414062 C 118.453125 1040.921875 117.742188 1040.394531 117.058594 1039.832031 C 116.371094 1039.269531 115.714844 1038.671875 115.089844 1038.046875 C 114.460938 1037.417969 113.867188 1036.761719 113.304688 1036.078125 C 112.742188 1035.390625 112.214844 1034.679688 111.722656 1033.941406 C 111.230469 1033.207031 110.773438 1032.445312 110.355469 1031.664062 C 109.9375 1030.882812 109.558594 1030.082031 109.21875 1029.261719 C 108.878906 1028.441406 108.582031 1027.609375 108.324219 1026.761719 C 108.066406 1025.910156 107.851562 1025.050781 107.679688 1024.183594 C 107.507812 1023.3125 107.375 1022.4375 107.289062 1021.554688 C 107.203125 1020.671875 107.160156 1019.785156 107.160156 1018.898438 Z M 107.160156 477.375 " fill-opacity="1" fill-rule="nonzero"/></g></svg>