<svg xmlns="http://www.w3.org/2000/svg" xmlns:xlink="http://www.w3.org/1999/xlink" width="1080" zoomAndPan="magnify" viewBox="0 0 810 1439.999935" height="1920" preserveAspectRatio="xMidYMid meet" version="1.0"><defs><clipPath id="b3d7192b73"><path d="M 74 703 L 756.410156 703 L 756.410156 1054.269531 L 74 1054.269531 Z M 74 703 " clip-rule="nonzero"/></clipPath><clipPath id="f7cd794de7"><path d="M 67.160156 371.769531 L 744 371.769531 L 744 721 L 67.160156 721 Z M 67.160156 371.769531 " clip-rule="nonzero"/></clipPath></defs><rect x="-81" width="972" fill="#ffffff" y="-143.999994" height="1727.999922" fill-opacity="1"/><rect x="-81" width="972" fill="#ffffff" y="-143.999994" height="1727.999922" fill-opacity="1"/><g clip-path="url(#b3d7192b73)"><path fill="#a9a7a7" d="M 751.644531 709.464844 C 748.730469 708.738281 745.085938 709.464844 743.628906 712.382812 L 718.113281 752.476562 L 694.058594 707.28125 C 692.601562 704.363281 688.957031 702.90625 686.039062 703.636719 C 683.125 704.363281 680.207031 707.28125 680.207031 710.925781 L 680.207031 713.113281 C 680.207031 858.902344 559.929688 978.449219 411.953125 978.449219 C 323.75 978.449219 242.105469 936.171875 192.539062 865.460938 L 226.070312 853.070312 C 228.257812 852.339844 230.445312 850.15625 230.445312 847.238281 C 230.445312 844.324219 229.714844 842.136719 227.527344 840.679688 L 116 763.410156 C 113.8125 761.953125 111.625 761.953125 109.4375 762.679688 C 107.25 763.410156 105.792969 765.597656 105.0625 767.78125 C 99.960938 789.652344 94.859375 811.519531 89.757812 832.660156 C 84.652344 854.527344 79.550781 875.667969 74.449219 897.535156 C 73.71875 900.453125 74.449219 902.640625 76.636719 904.828125 C 78.820312 906.285156 81.738281 907.011719 83.925781 906.285156 L 118.183594 893.164062 C 180.875 992.300781 292.40625 1054.261719 411.953125 1054.261719 C 601.480469 1054.261719 756.019531 902.640625 756.75 716.027344 C 756.75 713.113281 754.5625 710.195312 751.644531 709.464844 Z M 411.953125 1039.683594 C 296.050781 1039.683594 186.707031 978.449219 127.660156 880.769531 C 126.203125 878.582031 124.015625 877.125 121.101562 877.125 C 120.371094 877.125 119.644531 877.125 118.183594 877.855469 L 91.941406 888.058594 C 96.316406 870.566406 99.960938 853.800781 103.605469 836.304688 C 107.980469 818.082031 112.355469 799.855469 116 781.632812 L 207.847656 843.59375 L 178.6875 854.527344 C 176.5 855.257812 175.042969 856.714844 174.316406 858.902344 C 173.585938 861.089844 173.585938 863.277344 175.042969 865.460938 C 226.800781 944.917969 315.730469 993.03125 411.953125 993.03125 C 559.203125 993.03125 680.9375 880.769531 693.328125 737.894531 L 710.824219 770.699219 C 712.28125 772.886719 714.46875 774.34375 716.65625 774.34375 C 719.570312 774.34375 721.757812 772.886719 723.214844 770.699219 L 740.710938 743.726562 C 726.132812 909.199219 583.984375 1039.683594 411.953125 1039.683594 Z M 411.953125 1039.683594 " fill-opacity="1" fill-rule="nonzero"/></g><g clip-path="url(#f7cd794de7)"><path fill="#a9a7a7" d="M 81.738281 714.570312 L 109.4375 673.019531 L 130.578125 713.113281 C 132.035156 716.027344 135.679688 717.484375 138.597656 716.757812 C 141.511719 716.027344 144.425781 713.113281 144.425781 709.464844 C 145.15625 565.863281 265.433594 447.773438 411.953125 447.773438 C 499.429688 447.773438 580.339844 489.324219 630.640625 559.300781 L 611.6875 565.863281 C 609.5 566.59375 607.3125 568.777344 606.582031 571.695312 C 605.855469 574.609375 607.3125 576.796875 608.769531 578.984375 L 707.910156 662.085938 C 710.09375 663.542969 712.28125 664.273438 715.199219 663.542969 C 717.386719 662.8125 719.570312 660.625 719.570312 657.710938 L 742.898438 532.332031 C 743.628906 530.144531 742.167969 527.226562 740.710938 525.769531 C 738.523438 524.3125 736.335938 523.582031 733.421875 524.3125 L 704.992188 534.519531 C 643.03125 433.195312 531.5 371.960938 411.953125 371.960938 C 222.425781 371.960938 67.160156 524.3125 67.160156 712.382812 L 67.160156 713.113281 C 67.160156 717.484375 70.074219 720.402344 74.449219 720.402344 C 78.09375 720.402344 80.28125 718.214844 81.738281 714.570312 Z M 81.738281 714.570312 " fill-opacity="1" fill-rule="nonzero"/></g></svg>